<svg xmlns="http://www.w3.org/2000/svg" enable-background="new 0 0 24 24" viewBox="0 0 24 24"><path d="M6.125,24c-0.002,0-0.004,0-0.005,0c-1.57-0.017-3.082-0.596-4.257-1.632c-1.136-1.033-1.761-2.534-1.862-4.467L0,5.991C0,4.36,0.679,2.858,1.86,1.816C2.944,0.678,4.44,0.023,6.047,0h12.087c1.433,0,2.785,0.615,4.021,1.83C23.318,2.895,23.979,4.363,24,5.952V18.2c0,1.409-0.59,2.729-1.752,3.924c-1.114,1.174-2.622,1.842-4.242,1.876H6.125z M6.127,23h11.862c1.347-0.028,2.604-0.586,3.538-1.568C22.52,20.411,23,19.356,23,18.2V5.963c-0.018-1.308-0.562-2.519-1.534-3.407C20.411,1.52,19.295,1,18.134,1H6.059C4.726,1.02,3.481,1.563,2.558,2.531C1.555,3.419,1,4.647,1,5.937v11.938c0.088,1.657,0.589,2.892,1.53,3.748C3.52,22.495,4.799,22.985,6.127,23z M15.785,20.281c-0.153,0-0.298-0.07-0.393-0.19l-6.71-8.512l-0.016,8.089c-0.001,0.275-0.225,0.499-0.5,0.499H5.905c-0.337,0.03-0.892-0.062-1.423-0.642c-0.407-0.443-0.625-0.992-0.649-1.632V13.39c-0.189-0.497-0.564-0.783-1.174-0.898c-0.235-0.044-0.406-0.249-0.407-0.488s0.167-0.446,0.402-0.493c0.538-0.107,0.916-0.374,1.179-0.834V6.154c0.096-0.804,0.308-1.344,0.652-1.712c0.348-0.373,0.831-0.61,1.476-0.726l2.225-0.008c0.154,0,0.299,0.071,0.394,0.192l6.754,8.641V4.219c0-0.276,0.224-0.5,0.5-0.5h2.061c0.538,0.04,1.013,0.246,1.381,0.58c0.358,0.312,0.616,0.739,0.76,1.264c0.012,0.043,0.018,0.087,0.018,0.132v4.523c0.019,0.174,0.082,0.845,1.367,1.312c0.212,0.077,0.346,0.285,0.327,0.51c-0.018,0.225-0.184,0.409-0.404,0.451c-1.071,0.204-1.253,0.763-1.292,1.228l0.002,4.692c0,0.052-0.008,0.103-0.023,0.151c-0.17,0.535-0.427,0.929-0.786,1.204c-0.345,0.273-0.793,0.442-1.365,0.511L15.785,20.281z M16.027,19.281h1.79c0.317-0.042,0.61-0.146,0.811-0.304c0.186-0.143,0.32-0.348,0.424-0.647v-4.653c0.049-0.599,0.274-1.287,0.982-1.745c-0.587-0.431-0.916-0.988-0.98-1.667l-0.002-4.5c-0.093-0.305-0.237-0.541-0.441-0.719c-0.216-0.195-0.473-0.307-0.75-0.329l-1.527,0.002v9.274c0,0.214-0.136,0.403-0.337,0.473c-0.202,0.067-0.426,0.004-0.557-0.165L7.941,4.709H6.049C5.713,4.776,5.412,4.915,5.217,5.125c-0.19,0.203-0.324,0.58-0.388,1.091l0.004,4.586c0,0.078-0.019,0.156-0.054,0.226c-0.201,0.397-0.465,0.72-0.786,0.964c0.378,0.283,0.653,0.671,0.814,1.154c0.017,0.051,0.025,0.104,0.025,0.158v4.571c0.015,0.388,0.138,0.703,0.386,0.975c0.315,0.344,0.566,0.322,0.649,0.318l1.8-0.001l0.018-9.027c0-0.213,0.136-0.402,0.337-0.472c0.2-0.071,0.424-0.005,0.556,0.163L16.027,19.281z M4.333,10.802h0.01H4.333z"/></svg>
