<svg width="118" height="46" viewBox="0 0 118 46" fill="none" xmlns="http://www.w3.org/2000/svg">
<path d="M48.9 12.498H39.1V36.998H48.9C55.655 36.998 60.8 31.678 60.8 24.748C60.8 17.818 55.655 12.498 48.9 12.498ZM48.9 31.608H44.7V17.888H48.9C52.75 17.888 55.41 20.548 55.41 24.748C55.41 28.948 52.75 31.608 48.9 31.608ZM72.174 37.488C77.319 37.488 81.449 33.463 81.449 28.248C81.449 23.033 77.319 19.008 72.174 19.008C67.029 19.008 62.899 23.033 62.899 28.248C62.899 33.463 67.029 37.488 72.174 37.488ZM72.174 32.378C69.899 32.378 68.149 30.733 68.149 28.248C68.149 25.763 69.899 24.118 72.174 24.118C74.449 24.118 76.199 25.763 76.199 28.248C76.199 30.733 74.449 32.378 72.174 32.378ZM92.818 37.488C96.248 37.488 99.223 35.703 100.728 32.973L96.143 30.348C95.583 31.573 94.288 32.308 92.748 32.308C90.473 32.308 88.793 30.663 88.793 28.248C88.793 25.833 90.473 24.188 92.748 24.188C94.288 24.188 95.548 24.923 96.143 26.148L100.728 23.488C99.223 20.793 96.213 19.008 92.818 19.008C87.498 19.008 83.543 23.033 83.543 28.248C83.543 33.463 87.498 37.488 92.818 37.488ZM107.811 24.608C107.811 23.978 108.371 23.628 109.281 23.628C110.436 23.628 111.136 24.258 111.626 25.168L116.106 22.753C114.636 20.268 112.116 19.008 109.281 19.008C105.641 19.008 102.421 20.933 102.421 24.748C102.421 30.803 111.031 29.788 111.031 31.713C111.031 32.413 110.401 32.798 109.141 32.798C107.601 32.798 106.621 32.063 106.166 30.733L101.616 33.323C102.981 36.158 105.641 37.488 109.141 37.488C112.921 37.488 116.421 35.773 116.421 31.748C116.421 25.273 107.811 26.603 107.811 24.608Z" fill="white"/>
<path d="M6.2851 35.1027L6.28285 35.1003L6.27722 35.0957L6.2851 35.1027Z" fill="black"/>
<path d="M11.9115 37C11.9089 37 11.9063 37 11.905 37C9.87708 36.9795 7.92408 36.2798 6.40637 35.028C4.93904 33.7798 4.13175 31.9661 4.00129 29.6304L4 15.2391C4 13.2683 4.87704 11.4534 6.4025 10.1943C7.80267 8.81925 9.735 8.02779 11.8107 8H27.4231C29.274 8 31.0204 8.74313 32.6169 10.2113C34.1191 11.4981 34.9729 13.272 35 15.192V29.9917C35 31.6942 34.2379 33.2892 32.737 34.7332C31.2981 36.1518 29.3502 36.9589 27.2577 37H11.9115ZM11.914 35.7917H27.2358C28.9757 35.7578 30.5993 35.0836 31.8057 33.897C33.0883 32.6633 33.7083 31.3885 33.7083 29.9917V15.2053C33.6851 13.6248 32.9824 12.1615 31.7269 11.0885C30.3642 9.83667 28.9227 9.20833 27.4231 9.20833H11.8262C10.1044 9.2325 8.49629 9.88862 7.30408 11.0583C6.00854 12.1313 5.29167 13.6151 5.29167 15.1739V29.599C5.40533 31.6012 6.05246 33.0935 7.26792 34.1278C8.54667 35.1815 10.1987 35.7735 11.914 35.7917ZM24.389 32.5062C24.1913 32.5062 24.004 32.4216 23.8813 32.2766L15.2142 21.9913L15.1936 31.7655C15.1923 32.0978 14.903 32.3685 14.5478 32.3685H11.6273C11.192 32.4047 10.4751 32.2935 9.78925 31.5927C9.26354 31.0574 8.98196 30.394 8.95096 29.6207V24.1796C8.70683 23.579 8.22246 23.2335 7.43454 23.0945C7.131 23.0413 6.91013 22.7936 6.90883 22.5048C6.90754 22.216 7.12454 21.9659 7.42808 21.9091C8.123 21.7798 8.61125 21.4572 8.95096 20.9014V15.4361C9.07496 14.4646 9.34879 13.8121 9.79312 13.3674C10.2426 12.9167 10.8665 12.6303 11.6996 12.4902L14.5736 12.4805C14.7725 12.4805 14.9598 12.5663 15.0825 12.7125L23.8064 23.1537V13.098C23.8064 12.7645 24.0957 12.4938 24.4522 12.4938H27.1144C27.8093 12.5421 28.4228 12.791 28.8982 13.1946C29.3606 13.5716 29.6938 14.0876 29.8798 14.722C29.8953 14.7739 29.9031 14.8271 29.9031 14.8815V20.3468C29.9276 20.557 30.009 21.3678 31.6688 21.9321C31.9426 22.0251 32.1157 22.2765 32.0912 22.5483C32.0679 22.8202 31.8535 23.0425 31.5693 23.0933C30.186 23.3398 29.9509 24.0153 29.9005 24.5771L29.9031 30.2466C29.9031 30.3095 29.8927 30.3711 29.8734 30.4291C29.6538 31.0755 29.3218 31.5516 28.8581 31.8839C28.4125 32.2138 27.8338 32.418 27.095 32.5014L24.389 32.5062ZM24.7015 31.2979H27.0136C27.4231 31.2471 27.8015 31.1215 28.0612 30.9305C28.3014 30.7577 28.4745 30.51 28.6088 30.1488V24.5264C28.6721 23.8026 28.9627 22.9713 29.8772 22.4178C29.119 21.897 28.6941 21.224 28.6114 20.4035L28.6088 14.966C28.4887 14.5975 28.3027 14.3123 28.0392 14.0973C27.7602 13.8616 27.4282 13.7263 27.0705 13.6997L25.0981 13.7021V24.9082C25.0981 25.1668 24.9224 25.3952 24.6628 25.4798C24.4019 25.5607 24.1125 25.4846 23.9433 25.2804L14.2571 13.69H11.8133C11.3793 13.771 10.9905 13.939 10.7386 14.1927C10.4932 14.438 10.3201 14.8935 10.2375 15.511L10.2426 21.0524C10.2426 21.1467 10.2181 21.2409 10.1729 21.3255C9.91325 21.8052 9.57225 22.1955 9.15762 22.4903C9.64587 22.8323 10.0011 23.3011 10.209 23.8848C10.231 23.9464 10.2413 24.0104 10.2413 24.0757V29.599C10.2607 30.0678 10.4196 30.4484 10.7399 30.7771C11.1468 31.1928 11.471 31.1662 11.5782 31.1613L13.9032 31.1601L13.9265 20.2525C13.9265 19.9951 14.1021 19.7668 14.3618 19.6822C14.6201 19.5964 14.9094 19.6761 15.0799 19.8791L24.7015 31.2979ZM9.59679 21.0524H9.60971H9.59679Z" fill="black"/>
</svg>
