<svg width="118" height="46" viewBox="0 0 118 46" fill="none" xmlns="http://www.w3.org/2000/svg">
<path d="M48.9 12.498H39.1V36.998H48.9C55.655 36.998 60.8 31.678 60.8 24.748C60.8 17.818 55.655 12.498 48.9 12.498ZM48.9 31.608H44.7V17.888H48.9C52.75 17.888 55.41 20.548 55.41 24.748C55.41 28.948 52.75 31.608 48.9 31.608ZM72.174 37.488C77.319 37.488 81.449 33.463 81.449 28.248C81.449 23.033 77.319 19.008 72.174 19.008C67.029 19.008 62.899 23.033 62.899 28.248C62.899 33.463 67.029 37.488 72.174 37.488ZM72.174 32.378C69.899 32.378 68.149 30.733 68.149 28.248C68.149 25.763 69.899 24.118 72.174 24.118C74.449 24.118 76.199 25.763 76.199 28.248C76.199 30.733 74.449 32.378 72.174 32.378ZM92.818 37.488C96.248 37.488 99.223 35.703 100.728 32.973L96.143 30.348C95.583 31.573 94.288 32.308 92.748 32.308C90.473 32.308 88.793 30.663 88.793 28.248C88.793 25.833 90.473 24.188 92.748 24.188C94.288 24.188 95.548 24.923 96.143 26.148L100.728 23.488C99.223 20.793 96.213 19.008 92.818 19.008C87.498 19.008 83.543 23.033 83.543 28.248C83.543 33.463 87.498 37.488 92.818 37.488ZM107.811 24.608C107.811 23.978 108.371 23.628 109.281 23.628C110.436 23.628 111.136 24.258 111.626 25.168L116.106 22.753C114.636 20.268 112.116 19.008 109.281 19.008C105.641 19.008 102.421 20.933 102.421 24.748C102.421 30.803 111.031 29.788 111.031 31.713C111.031 32.413 110.401 32.798 109.141 32.798C107.601 32.798 106.621 32.063 106.166 30.733L101.616 33.323C102.981 36.158 105.641 37.488 109.141 37.488C112.921 37.488 116.421 35.773 116.421 31.748C116.421 25.273 107.811 26.603 107.811 24.608Z" fill="white"/>
<path d="M34.5832 5.49051C36.1353 7.08958 36.9411 9.09266 37 11.4999V28.5001C36.9411 30.9067 36.1354 32.9104 34.5832 34.5095C33.0312 36.1086 31.0863 36.9388 28.75 37H12.25C9.91354 36.9389 7.96934 36.1087 6.41729 34.5095C4.86523 32.9106 4.0593 30.9068 4 28.5002V11.5C4.0593 9.0928 4.8651 7.08971 6.41729 5.49064C7.96934 3.89144 9.91354 3.06109 12.25 3H28.75C31.0863 3.06109 33.0312 3.89131 34.5832 5.49051V5.49051ZM32.3074 19.1703C31.7888 18.6387 31.5192 17.9717 31.4978 17.1693V11.5C31.4813 10.6976 31.214 10.0295 30.6959 9.49575C30.1777 8.96145 29.5287 8.68652 28.75 8.66965H26.0027V22.831L14.9978 8.66939H12.25C11.4711 8.68639 10.8227 8.96131 10.3046 9.49562C9.78605 10.0295 9.51921 10.6976 9.50284 11.4998V17.1693C9.48131 17.9717 9.21176 18.6387 8.69316 19.1703C8.17495 19.7011 7.52654 19.9778 6.74781 19.9998C7.52654 20.0224 8.17508 20.299 8.69303 20.8299C9.21176 21.3614 9.48131 22.0284 9.50271 22.8308V28.5001C9.51921 29.3019 9.78605 29.9706 10.3046 30.5044C10.8229 31.0383 11.4713 31.3136 12.2499 31.3305H14.9978V17.1694L26.0027 31.3309H28.75C29.5287 31.3139 30.1778 31.0384 30.6959 30.5046C31.2141 29.9707 31.4813 29.3022 31.4977 28.5005V22.831C31.5192 22.0285 31.7888 21.3615 32.3074 20.83C32.8256 20.2992 33.474 20.0225 34.2527 19.9999C33.474 19.9778 32.8254 19.7012 32.3075 19.1704L32.3074 19.1703Z" fill="#3C5AFD"/>
</svg>
