<svg width="118" height="46" viewBox="0 0 118 46" fill="none" xmlns="http://www.w3.org/2000/svg">
<path d="M48.9 12.498H39.1V36.998H48.9C55.655 36.998 60.8 31.678 60.8 24.748C60.8 17.818 55.655 12.498 48.9 12.498ZM48.9 31.608H44.7V17.888H48.9C52.75 17.888 55.41 20.548 55.41 24.748C55.41 28.948 52.75 31.608 48.9 31.608ZM72.174 37.488C77.319 37.488 81.449 33.463 81.449 28.248C81.449 23.033 77.319 19.008 72.174 19.008C67.029 19.008 62.899 23.033 62.899 28.248C62.899 33.463 67.029 37.488 72.174 37.488ZM72.174 32.378C69.899 32.378 68.149 30.733 68.149 28.248C68.149 25.763 69.899 24.118 72.174 24.118C74.449 24.118 76.199 25.763 76.199 28.248C76.199 30.733 74.449 32.378 72.174 32.378ZM92.818 37.488C96.248 37.488 99.223 35.703 100.728 32.973L96.143 30.348C95.583 31.573 94.288 32.308 92.748 32.308C90.473 32.308 88.793 30.663 88.793 28.248C88.793 25.833 90.473 24.188 92.748 24.188C94.288 24.188 95.548 24.923 96.143 26.148L100.728 23.488C99.223 20.793 96.213 19.008 92.818 19.008C87.498 19.008 83.543 23.033 83.543 28.248C83.543 33.463 87.498 37.488 92.818 37.488ZM107.811 24.608C107.811 23.978 108.371 23.628 109.281 23.628C110.436 23.628 111.136 24.258 111.626 25.168L116.106 22.753C114.636 20.268 112.116 19.008 109.281 19.008C105.641 19.008 102.421 20.933 102.421 24.748C102.421 30.803 111.031 29.788 111.031 31.713C111.031 32.413 110.401 32.798 109.141 32.798C107.601 32.798 106.621 32.063 106.166 30.733L101.616 33.323C102.981 36.158 105.641 37.488 109.141 37.488C112.921 37.488 116.421 35.773 116.421 31.748C116.421 25.273 107.811 26.603 107.811 24.608Z" fill="white"/>
<path d="M6.2851 35.1027L6.28285 35.1003L6.27722 35.0957L6.2851 35.1027Z" fill="black"/>
<rect width="31" height="29" transform="translate(4 8)" fill="white"/>
<path d="M6.28539 35.1024L6.28306 35.1002L6.27722 35.0957L6.28539 35.1024Z" fill="#34A853"/>
<path d="M11.5821 37H27.5729H27.5807C29.6447 36.9589 31.5035 36.1324 32.83 34.825C34.2767 33.4354 35 31.9371 35 30.3179V14.8875V14.8827C34.9729 13.0013 34.0984 11.312 32.7137 10.1267C31.1896 8.725 29.5362 8 27.7667 8H11.4917H11.4865C9.44308 8.02779 7.60117 8.83737 6.28625 10.1267H6.28754L6.27979 10.1327C4.88221 11.2855 4 12.9747 4 14.8549C4 14.879 4 14.9032 4 14.9238V29.9071C4.12917 32.2017 4.88996 33.9163 6.28367 35.1005C7.69933 36.2665 9.549 36.9807 11.5821 37ZM9.16667 20.9896V15.1292C9.27 14.3438 9.5025 13.7637 9.86417 13.4012C10.2258 13.0387 10.7554 12.7971 11.4787 12.6763H14.3592L24.6667 25.0133V12.6883H27.4437H27.4515C27.9901 12.7282 28.4771 12.9373 28.8517 13.2563C29.2521 13.5825 29.5233 14.0175 29.6783 14.5492V20.2525C29.7817 21.2675 30.5437 22.0167 31.9646 22.5C30.5437 22.7538 29.7817 23.4667 29.6783 24.6146V30.5838C29.4975 31.1154 29.2392 31.5142 28.8517 31.7921C28.4771 32.07 27.9733 32.2392 27.3404 32.3117H24.6021L14.3592 20.1558L14.3333 32.1667H11.285C10.7683 32.2029 10.2904 31.9975 9.86417 31.5625C9.425 31.1154 9.1925 30.5717 9.16667 29.9071V24.1433C8.84375 23.2371 8.13333 22.6933 7.03542 22.5C8.00417 22.3188 8.71458 21.8233 9.16667 20.9896Z" fill="#4285F4"/>
</svg>
