<svg width="118" height="46" viewBox="0 0 118 46" fill="none" xmlns="http://www.w3.org/2000/svg">
<path d="M47.9 15.498H38.1V39.998H47.9C54.655 39.998 59.8 34.678 59.8 27.748C59.8 20.818 54.655 15.498 47.9 15.498ZM47.9 34.608H43.7V20.888H47.9C51.75 20.888 54.41 23.548 54.41 27.748C54.41 31.948 51.75 34.608 47.9 34.608ZM71.174 40.488C76.319 40.488 80.449 36.463 80.449 31.248C80.449 26.033 76.319 22.008 71.174 22.008C66.029 22.008 61.899 26.033 61.899 31.248C61.899 36.463 66.029 40.488 71.174 40.488ZM71.174 35.378C68.899 35.378 67.149 33.733 67.149 31.248C67.149 28.763 68.899 27.118 71.174 27.118C73.449 27.118 75.199 28.763 75.199 31.248C75.199 33.733 73.449 35.378 71.174 35.378ZM91.818 40.488C95.248 40.488 98.223 38.703 99.728 35.973L95.143 33.348C94.583 34.573 93.288 35.308 91.748 35.308C89.473 35.308 87.793 33.663 87.793 31.248C87.793 28.833 89.473 27.188 91.748 27.188C93.288 27.188 94.548 27.923 95.143 29.148L99.728 26.488C98.223 23.793 95.213 22.008 91.818 22.008C86.498 22.008 82.543 26.033 82.543 31.248C82.543 36.463 86.498 40.488 91.818 40.488ZM106.811 27.608C106.811 26.978 107.371 26.628 108.281 26.628C109.436 26.628 110.136 27.258 110.626 28.168L115.106 25.753C113.636 23.268 111.116 22.008 108.281 22.008C104.641 22.008 101.421 23.933 101.421 27.748C101.421 33.803 110.031 32.788 110.031 34.713C110.031 35.413 109.401 35.798 108.141 35.798C106.601 35.798 105.621 35.063 105.166 33.733L100.616 36.323C101.981 39.158 104.641 40.488 108.141 40.488C111.921 40.488 115.421 38.773 115.421 34.748C115.421 28.273 106.811 29.603 106.811 27.608Z" fill="white"/>
<path d="M30.5832 8.49051C32.1353 10.0896 32.9411 12.0927 33 14.4999V31.5001C32.9411 33.9067 32.1354 35.9104 30.5832 37.5095C29.0312 39.1086 27.0863 39.9388 24.75 40H8.25C5.91354 39.9389 3.96934 39.1087 2.41729 37.5095C0.865232 35.9106 0.0592978 33.9068 0 31.5002V14.5C0.0592978 12.0928 0.865103 10.0897 2.41729 8.49064C3.96934 6.89144 5.91354 6.06109 8.25 6H24.75C27.0863 6.06109 29.0312 6.89131 30.5832 8.49051V8.49051ZM28.3074 22.1703C27.7888 21.6387 27.5192 20.9717 27.4978 20.1693V14.5C27.4813 13.6976 27.214 13.0295 26.6959 12.4958C26.1777 11.9614 25.5287 11.6865 24.75 11.6697H22.0027V25.831L10.9978 11.6694H8.25C7.47114 11.6864 6.82273 11.9613 6.30465 12.4956C5.78605 13.0295 5.51921 13.6976 5.50284 14.4998V20.1693C5.48131 20.9717 5.21176 21.6387 4.69316 22.1703C4.17495 22.7011 3.52654 22.9778 2.74781 22.9998C3.52654 23.0224 4.17508 23.299 4.69303 23.8299C5.21176 24.3614 5.48131 25.0284 5.50271 25.8308V31.5001C5.51921 32.3019 5.78605 32.9706 6.30465 33.5044C6.82286 34.0383 7.47127 34.3136 8.24987 34.3305H10.9978V20.1694L22.0027 34.3309H24.75C25.5287 34.3139 26.1778 34.0384 26.6959 33.5046C27.2141 32.9707 27.4813 32.3022 27.4977 31.5005V25.831C27.5192 25.0285 27.7888 24.3615 28.3074 23.83C28.8256 23.2992 29.474 23.0225 30.2527 22.9999C29.474 22.9778 28.8254 22.7012 28.3075 22.1704L28.3074 22.1703Z" fill="#3C5AFD"/>
</svg>